<?xml version="1.0" encoding="utf-8"?>
<!-- Generator: Adobe Illustrator 24.1.1, SVG Export Plug-In . SVG Version: 6.00 Build 0)  -->
<svg version="1.1" id="Layer_1" xmlns="http://www.w3.org/2000/svg" xmlns:xlink="http://www.w3.org/1999/xlink" x="0px" y="0px"
	 viewBox="0 0 170.08 150" style="enable-background:new 0 0 170.08 150;" xml:space="preserve">
<style type="text/css">
	.st0{fill:#1F68FD;}
	.st1{fill:none;stroke:#FFFFFF;stroke-miterlimit:10;}
</style>
<ellipse class="st0" cx="85.04" cy="75" rx="41.02" ry="41.57"/>
<g>
	<g>
		<path class="st1" d="M93.27,59.26L93.27,59.26c-3.17-0.02-6.19,1.38-8.23,3.8c-2.03-2.44-5.05-3.84-8.23-3.8
			c-5.95,0-10.78,4.83-10.78,10.78c0,10.2,17.81,20.16,18.53,20.55c0.29,0.19,0.67,0.19,0.96,0c0.72-0.39,18.53-10.2,18.53-20.55
			C104.05,64.09,99.22,59.26,93.27,59.26z M85.04,88.09c-2.67-1.57-16.36-9.91-16.36-17.84c0-4.68,3.8-8.48,8.48-8.48
			c2.87-0.04,5.55,1.41,7.1,3.83c0.31,0.43,0.92,0.53,1.35,0.22c0.08-0.06,0.16-0.13,0.22-0.22c2.56-3.92,7.82-5.02,11.74-2.46
			c2.4,1.57,3.84,4.25,3.84,7.11C101.4,78.27,87.71,86.57,85.04,88.09z"/>
	</g>
</g>
</svg>
