<?xml version="1.0" encoding="utf-8"?>
<!-- Generator: Adobe Illustrator 24.1.1, SVG Export Plug-In . SVG Version: 6.00 Build 0)  -->
<svg version="1.1" id="Layer_1" xmlns="http://www.w3.org/2000/svg" xmlns:xlink="http://www.w3.org/1999/xlink" x="0px" y="0px"
	 viewBox="0 0 170.08 150" style="enable-background:new 0 0 170.08 150;" xml:space="preserve">
<style type="text/css">
	.st0{fill:#1F68FD;}
	.st1{fill:none;stroke:#FFFFFF;stroke-width:3;stroke-miterlimit:10;}
</style>
<ellipse class="st0" cx="85.04" cy="75.69" rx="41.02" ry="41.57"/>
<g>
	<g>
		<path class="st1" d="M92.23,55.45l-1.86-0.46c-0.24-0.07-0.48-0.05-0.71,0.07c-0.23,0.12-0.39,0.3-0.47,0.53L77.99,90.81
			c-0.08,0.24-0.05,0.46,0.08,0.67c0.13,0.21,0.33,0.35,0.59,0.42l1.86,0.46c0.24,0.07,0.48,0.05,0.71-0.07
			c0.23-0.12,0.39-0.3,0.47-0.53L92.9,56.54c0.08-0.24,0.06-0.46-0.08-0.67C92.69,55.66,92.5,55.52,92.23,55.45z"/>
		<path class="st1" d="M75.44,62.33c0-0.24-0.1-0.45-0.3-0.63l-1.5-1.36c-0.2-0.18-0.43-0.27-0.69-0.27c-0.26,0-0.49,0.09-0.69,0.27
			l-14,12.72c-0.2,0.18-0.3,0.39-0.3,0.63c0,0.24,0.1,0.45,0.3,0.63l14,12.72c0.2,0.18,0.43,0.27,0.69,0.27
			c0.26,0,0.49-0.09,0.69-0.27l1.5-1.36c0.2-0.18,0.3-0.39,0.3-0.63c0-0.24-0.1-0.45-0.3-0.63L63.33,73.68l11.81-10.72
			C75.34,62.77,75.44,62.56,75.44,62.33z"/>
		<path class="st1" d="M112.64,73.05l-14-12.72c-0.2-0.18-0.43-0.27-0.69-0.27c-0.26,0-0.49,0.09-0.69,0.27l-1.5,1.36
			c-0.2,0.18-0.3,0.39-0.3,0.63c0,0.24,0.1,0.45,0.3,0.63l11.81,10.72L95.75,84.4c-0.2,0.18-0.3,0.39-0.3,0.63
			c0,0.24,0.1,0.45,0.3,0.63l1.5,1.36c0.2,0.18,0.43,0.27,0.69,0.27c0.26,0,0.49-0.09,0.69-0.27l14-12.72
			c0.2-0.18,0.3-0.39,0.3-0.63C112.94,73.44,112.84,73.23,112.64,73.05z"/>
	</g>
</g>
</svg>
