<?xml version="1.0" encoding="utf-8"?>
<!-- Generator: Adobe Illustrator 24.1.1, SVG Export Plug-In . SVG Version: 6.00 Build 0)  -->
<svg version="1.1" id="Layer_1" xmlns="http://www.w3.org/2000/svg" xmlns:xlink="http://www.w3.org/1999/xlink" x="0px" y="0px"
	 viewBox="0 0 170.08 150" style="enable-background:new 0 0 170.08 150;" xml:space="preserve">
<style type="text/css">
	.st0{fill:#1F68FD;}
	.st1{fill:#FFFFFF;}
</style>
<ellipse class="st0" cx="85.04" cy="75.69" rx="41.02" ry="41.57"/>
<g>
	<path class="st1" d="M106.13,89.95c0-0.01,0-0.01,0-0.02c0-0.03-0.01-0.06-0.01-0.09c0,0,0-0.01,0-0.01c0-0.03-0.01-0.05-0.02-0.08
		c0-0.01,0-0.01-0.01-0.02c-0.01-0.02-0.01-0.04-0.02-0.07c0,0,0-0.01,0-0.01l-3.33-7.82V56.13c0-0.79-0.54-1.43-1.21-1.43H68.17
		c-0.67,0-1.21,0.64-1.21,1.43v25.72l-3.33,7.82c0,0,0,0.01,0,0.01c-0.01,0.02-0.02,0.04-0.02,0.07c0,0.01,0,0.01-0.01,0.02
		c-0.01,0.02-0.01,0.05-0.02,0.08c0,0,0,0.01,0,0.01c-0.01,0.03-0.01,0.06-0.01,0.09c0,0.01,0,0.01,0,0.02c0,0.02,0,0.03,0,0.05
		v1.88c0,0.94,0.64,1.7,1.43,1.7h39.7c0.79,0,1.43-0.76,1.43-1.7v-1.88C106.13,89.98,106.13,89.96,106.13,89.95z M68.21,56.17h33.27
		v25.1H68.21V56.17z M67.97,82.76h33.75l2.77,6.49h-13.7l-0.69-2.96c-0.14-0.6-0.61-1.02-1.13-1.02h-8.25
		c-0.53,0-0.99,0.42-1.13,1.02l-0.69,2.96H65.2L67.97,82.76z M89.5,89.25h-9.3l0.58-2.51h8.14L89.5,89.25z M104.88,91.87
		c0,0.12-0.08,0.22-0.19,0.22H65c-0.1,0-0.19-0.1-0.19-0.22v-1.14h40.07V91.87z"/>
	<path class="st1" d="M100.15,58.92c0-0.64-0.44-1.16-0.98-1.16H70.52c-0.54,0-0.98,0.52-0.98,1.16V70.7v0.99v6.85
		c0,0.64,0.44,1.16,0.98,1.16h28.65c0.54,0,0.98-0.52,0.98-1.16V70.7c0,0,0,0,0,0V58.92z M98.91,78.22H70.79v-6.53V70.7V59.24h28.11
		V70.7v0.99V78.22z"/>
</g>
</svg>
